<?xml version="1.0" encoding="UTF-8" standalone="no"?>
<!-- Created with Inkscape (http://www.inkscape.org/) -->

<svg
   width="121.36921mm"
   height="140.82887mm"
   viewBox="0 0 121.36921 140.82887"
   version="1.1"
   id="svg1"
   xml:space="preserve"
   xmlns="http://www.w3.org/2000/svg"
   xmlns:svg="http://www.w3.org/2000/svg"><defs
     id="defs1" /><g
     id="layer1"
     transform="translate(-43.309614,-11.980609)"><g
       id="g1"
       transform="translate(-132.41096,26.260274)"><path
         style="fill:#fefefe"
         d="m 232.03409,-14.279665 -11.71961,6.7027774 c -6.44579,3.686528 -19.11633,10.956302 -28.15676,16.155055 l -16.43714,9.4522776 0.0774,32.457719 c 0.0683,28.641234 0.12924,32.590457 0.5185,33.586607 0.39256,1.00463 4.21345,6.44926 6.47103,9.22102 0.46436,0.57012 1.51209,1.34316 2.32829,1.71787 0.8162,0.37471 4.46849,2.39496 8.11621,4.48945 12.39098,7.114769 28.91595,16.647929 32.17334,18.560609 10.55253,6.19626 14.69626,8.48549 15.35959,8.48549 0.47537,0 3.19241,-1.52434 19.49485,-10.93715 13.70452,-7.91281 18.05338,-10.41986 23.84777,-13.74787 3.18206,-1.82761 7.40481,-4.272559 9.38389,-5.433209 l 3.59833,-2.11029 V 79.887514 65.454336 l -4.5829,-4.589226 c -2.5206,-2.524074 -4.67959,-4.589226 -4.79778,-4.589226 -0.11818,0 -0.21487,5.830287 -0.21487,12.956192 v 12.956192 l -10.23055,5.921383 c -13.87895,8.03305 -38.66489,22.185799 -42.07725,24.026069 -2.51008,1.35368 -2.84925,1.4655 -3.51915,1.16027 -1.15657,-0.52696 -27.21553,-15.534139 -31.2386,-17.990089 -0.77611,-0.47379 -4.42695,-2.55962 -8.11298,-4.63517 l -6.70188,-3.77374 -9e-4,-28.398501 -9e-4,-28.398503 4.445,-2.542767 c 4.78391,-2.736644 17.33056,-9.965088 26.45833,-15.243315 3.10444,-1.795178 6.78744,-3.9196016 8.18444,-4.7209426 1.397,-0.801341 5.5655,-3.203064 9.26332,-5.337164 l 6.72333,-3.88018 3.43667,1.97114297 c 1.89017,1.08412903 5.72268,3.29250003 8.51668,4.90749103 2.794,1.614991 12.446,7.1704206 21.44889,12.3453996 9.00288,5.174979 17.41046,10.025168 18.6835,10.778199 1.27304,0.753031 2.4977,1.369147 2.72147,1.369147 0.52612,0 0.74947,-0.611349 0.74947,-2.051398 0,-1.123774 -0.15004,-1.309451 -4.99629,-6.182904 l -4.99628,-5.024337 -8.19761,-4.712669 C 250.21585,-4.2274076 243.2917,-8.1885917 238.12351,-11.067253 c -1.73851,-0.525931 -4.41804,-3.212412 -6.08939,-3.212412 z"
         id="path8" /><path
         style="fill:#97a7a9"
         d="m 287.62439,69.258106 c 0,-7.217833 0.0366,-10.170583 0.0812,-6.561667 0.0447,3.608917 0.0447,9.514416 0,13.123333 -0.0447,3.608916 -0.0812,0.656166 -0.0812,-6.561666 z M 175.77877,81.111438 c 0,-0.388056 0.0641,-0.546806 0.14235,-0.352778 0.0783,0.194028 0.0783,0.511528 0,0.705556 -0.0783,0.194027 -0.14235,0.03528 -0.14235,-0.352778 z M 296.04159,27.912553 c 0.002,-0.776111 0.0569,-1.060114 0.12179,-0.631119 0.0649,0.428995 0.0631,1.063995 -0.004,1.411111 -0.067,0.347116 -0.12006,-0.0039 -0.11794,-0.779992 z m -1.7837,-3.174999 -1.54258,-1.622778 1.62278,1.542581 c 1.50761,1.433107 1.75206,1.702974 1.54258,1.702974 -0.0441,0 -0.77436,-0.73025 -1.62278,-1.622777 z"
         id="path7" /><path
         style="fill:#72878a"
         d="m 175.75649,80.100142 c 0.0135,-0.328773 0.0804,-0.395647 0.17051,-0.17051 0.0815,0.20373 0.0715,0.447146 -0.0223,0.540926 -0.0938,0.09378 -0.16048,-0.07291 -0.14823,-0.370416 z M 289.32864,19.869221 c -1.85781,-1.862667 -3.31434,-3.386667 -3.23673,-3.386667 0.0776,0 1.66114,1.524 3.51896,3.386667 1.85781,1.862666 3.31434,3.386666 3.23673,3.386666 -0.0776,0 -1.66114,-1.524 -3.51896,-3.386666 z"
         id="path6" /><path
         style="fill:#ffffff"
         d="m 180.17921,83.752571 -2.75166,-1.563677 0.004,-29.819281 c 0.002,-16.400605 0.0802,-30.104006 0.17343,-30.452002 0.1434,-0.535062 0.66553,0.06119 3.38281,3.863042 l 3.21323,4.495762 -0.0388,19.42029 c -0.0531,26.617789 -0.25451,35.481796 -0.8079,35.559836 -0.23284,0.0328 -1.66159,-0.64395 -3.175,-1.50397 z m 2.41855,-59.15373 c -2.98346,-4.264357 -4.17111,-6.119028 -4.00296,-6.251163 0.55516,-0.436261 21.02468,-12.3125466 38.44728,-22.3068646 10.17618,-5.8374744 13.81067,-7.7804784 14.55379,-7.7804784 0.3419,0 1.44037,1.105104 3.01565,3.0338886 1.36282,1.6686388 3.03225,3.6923168 3.70986,4.4970618 l 1.23202,1.463173 -4.74571,2.80612797 C 232.19755,1.6039564 220.53699,8.3599994 208.89532,15.074014 197.25366,21.78803 187.20766,27.583173 186.57088,27.952111 l -1.15778,0.670795 z m 109.67053,2.009963 c -1.30636,-0.794858 -10.7572,-6.302088 -21.00187,-12.238289 -19.03631,-11.0304586 -27.0408,-15.7229966 -28.76109,-16.8608356 -0.99101,-0.655474 -6.84331,-7.7467834 -6.59674,-7.9933524 0.12058,-0.120587 15.56164,8.6426304 41.00228,23.269899 l 8.46666,4.867967 4.25907,4.282514 c 4.04426,4.066527 5.43645,5.68774 5.13936,5.984821 -0.0728,0.07286 -1.20131,-0.517867 -2.50767,-1.312724 z"
         id="path5" /><path
         style="fill:#635356"
         d="m 183.31821,93.881991 c -0.35104,-0.44762 -0.34106,-0.4576 0.10656,-0.10655 0.27164,0.21303 0.49389,0.43528 0.49389,0.49389 0,0.23227 -0.23176,0.0828 -0.60045,-0.38734 z m 0.17711,-8.53722 c 0.0959,-0.15522 0.23043,-0.28222 0.29888,-0.28222 0.0685,0 0.12446,0.127 0.12446,0.28222 0,0.15522 -0.1345,0.28222 -0.29888,0.28222 -0.16438,0 -0.22039,-0.127 -0.12446,-0.28222 z m -6.21998,-3.175 c -0.074,-0.194028 -0.10171,-12.227277 -0.0617,-26.740553 l 0.0728,-26.387776 0.14107,26.740574 c 0.0776,14.707316 0.10534,26.740565 0.0617,26.740554 -0.0437,-1.2e-5 -0.13993,-0.158771 -0.2139,-0.352799 z m 6.76278,-5.432777 c 2.3e-4,-3.259667 0.0413,-4.554514 0.0913,-2.877439 0.05,1.677076 0.0498,4.344075 -4.2e-4,5.926667 -0.0502,1.582591 -0.0911,0.210438 -0.0909,-3.049228 z M 293.66709,26.148665 c -0.35105,-0.44762 -0.34107,-0.457603 0.10655,-0.106555 0.27164,0.213034 0.49389,0.435284 0.49389,0.493889 0,0.232279 -0.23175,0.08278 -0.60044,-0.387334 z M 175.84476,21.844776 c 0,-2.0955 0.0444,-2.95275 0.0987,-1.905 0.0543,1.04775 0.0543,2.76225 0,3.81 -0.0543,1.04775 -0.0987,0.1905 -0.0987,-1.905 z m 1.58279,-0.282222 c 0,-0.310444 0.11511,-0.564444 0.2558,-0.564444 0.14069,0 0.18937,0.254 0.10819,0.564444 -0.0812,0.310444 -0.19629,0.564444 -0.2558,0.564444 -0.0595,0 -0.10819,-0.254 -0.10819,-0.564444 z m 61.20621,-25.3294416 c -0.35104,-0.44762 -0.34106,-0.457603 0.10656,-0.106555 0.47011,0.368687 0.61961,0.600444 0.38733,0.600444 -0.0586,0 -0.28085,-0.22225 -0.49389,-0.493889 z m 1.12889,-1.411111 c -0.35105,-0.44762 -0.34106,-0.457603 0.10656,-0.106555 0.27164,0.213034 0.49389,0.435284 0.49389,0.493889 0,0.232279 -0.23176,0.08278 -0.60045,-0.387334 z m -2.54,-0.282222 c -0.35104,-0.447621 -0.34106,-0.457603 0.10656,-0.106555 0.27164,0.213034 0.49389,0.435284 0.49389,0.493889 0,0.232278 -0.23176,0.08278 -0.60045,-0.387334 z m -1.12889,-1.411111 c -0.35104,-0.4476206 -0.34106,-0.4576029 0.10656,-0.106555 0.47011,0.368687 0.61961,0.600443 0.38733,0.600443 -0.0586,0 -0.28085,-0.22225 -0.49389,-0.493888 z m -1.41111,-1.6933337 c -0.35104,-0.4476201 -0.34106,-0.4576024 0.10656,-0.1065544 0.27164,0.2130339 0.49389,0.4352838 0.49389,0.4938888 0,0.2322785 -0.23176,0.082777 -0.60045,-0.3873344 z m -2.78622,-3.0573997 c -0.47451,-0.263301 -0.55514,-0.392864 -0.24622,-0.395662 0.25263,-0.0023 0.61743,0.18634 0.81066,0.419173 0.41213,0.496577 0.36966,0.494808 -0.56444,-0.02351 z"
         id="path4" /><path
         style="fill:#ffffff"
         d="m 240.82367,124.1982 c -0.13353,-0.53202 -3.24995,-4.47768 -6.86573,-8.69263 -0.35483,-0.41363 0.11447,-0.75437 4.62792,-3.36014 4.35009,-2.51146 46.59278,-26.968469 48.68237,-28.185359 0.75125,-0.43749 0.77669,-0.42612 1.83445,0.81956 0.58995,0.69476 2.43788,2.78079 4.10652,4.63561 1.66864,1.85482 3.03389,3.46207 3.03389,3.57168 0,0.22006 -7.58697,4.75312 -14.39333,8.599729 -2.40595,1.35971 -11.48732,6.56269 -20.18082,11.56217 -8.69351,4.99947 -16.90209,9.68239 -18.24129,10.40648 l -2.43491,1.31654 z m -7.93946,-3.49305 c -1.397,-0.87477 -6.223,-3.70545 -10.72445,-6.2904 -23.02302,-13.22099 -35.87784,-20.720819 -36.19499,-21.117079 -0.20573,-0.25705 -0.35278,-1.25438 -0.35278,-2.39259 0,-1.61341 0.0729,-1.92383 0.42063,-1.7904 0.43305,0.16618 13.38884,7.58712 33.44603,19.157549 l 11.43,6.59365 2.62975,3.23111 c 1.44636,1.77711 2.75258,3.45336 2.90271,3.725 0.54051,0.97799 -0.96779,0.50439 -3.5569,-1.11684 z m 59.33721,-34.710479 -3.31611,-3.979902 V 70.772339 59.52991 l 3.52778,3.519307 3.52778,3.519308 -0.0209,10.446456 c -0.0115,5.745551 -0.10676,11.01191 -0.21167,11.70303 l -0.19075,1.25657 z"
         id="path3" /><path
         style="fill:#13505c"
         d="m 235.77699,122.41119 c 0.19402,-0.0783 0.51152,-0.0783 0.70555,0 0.19403,0.0783 0.0353,0.14235 -0.35278,0.14235 -0.38805,0 -0.5468,-0.0641 -0.35277,-0.14235 z m 2.57455,-1.43587 c -0.35105,-0.44762 -0.34106,-0.4576 0.10656,-0.10655 0.47011,0.36868 0.61961,0.60044 0.38733,0.60044 -0.0586,0 -0.28085,-0.22225 -0.49389,-0.49389 z m -1.41111,-1.69333 c -0.35105,-0.44762 -0.34106,-0.4576 0.10656,-0.10656 0.27163,0.21304 0.49388,0.43529 0.49388,0.49389 0,0.23228 -0.23175,0.0828 -0.60044,-0.38733 z m -1.69333,-1.97556 c -0.35105,-0.44762 -0.34107,-0.4576 0.10655,-0.10655 0.27164,0.21303 0.49389,0.43528 0.49389,0.49389 0,0.23228 -0.23176,0.0828 -0.60044,-0.38734 z m -1.41111,-1.69333 c -0.35105,-0.44762 -0.34107,-0.4576 0.10655,-0.10655 0.27164,0.21303 0.49389,0.43528 0.49389,0.49389 0,0.23227 -0.23176,0.0828 -0.60044,-0.38734 z m -2.82223,-0.56444 c -0.35104,-0.44762 -0.34106,-0.45761 0.10656,-0.10656 0.27164,0.21304 0.49389,0.43529 0.49389,0.49389 0,0.23228 -0.23176,0.0828 -0.60045,-0.38733 z m 64.62888,-22.859999 c -0.35104,-0.44762 -0.34106,-0.4576 0.10656,-0.10656 0.47011,0.36869 0.61961,0.60045 0.38733,0.60045 -0.0586,0 -0.28085,-0.22225 -0.49389,-0.49389 z m -0.41414,-2.39403 c -0.3956,-0.46366 -0.41196,-0.53308 -0.0619,-0.26276 0.42448,0.32782 0.48773,0.25134 0.58756,-0.71042 0.10497,-1.01143 0.11478,-0.99525 0.1593,0.26276 0.0261,0.73731 0.004,1.34056 -0.0499,1.34056 -0.0536,0 -0.33931,-0.28356 -0.635,-0.63014 z m -2.11122,-0.42819 -0.68419,-0.77611 0.77611,0.68419 c 0.72539,0.63948 0.90553,0.86803 0.68419,0.86803 -0.0506,0 -0.3998,-0.34925 -0.77611,-0.77611 z m 0.54981,-1.41111 c -0.35105,-0.44762 -0.34107,-0.45761 0.10655,-0.10656 0.27164,0.21303 0.49389,0.43528 0.49389,0.49389 0,0.23228 -0.23175,0.0828 -0.60044,-0.38733 z m -2.95415,-1.27 -0.53763,-0.635 0.635,0.53763 c 0.34925,0.29569 0.635,0.58144 0.635,0.635 0,0.22584 -0.22713,0.0591 -0.73237,-0.53763 z m 1.54304,-0.42334 c -0.35105,-0.44762 -0.34107,-0.4576 0.10655,-0.10655 0.47011,0.36868 0.61962,0.60044 0.38734,0.60044 -0.0586,0 -0.28086,-0.22225 -0.49389,-0.49389 z m -3.38667,-1.69333 c -0.35105,-0.44762 -0.34106,-0.4576 0.10656,-0.10656 0.47011,0.36869 0.61961,0.60045 0.38733,0.60045 -0.0586,0 -0.28085,-0.22225 -0.49389,-0.49389 z m 1.97556,0 c -0.35105,-0.44762 -0.34107,-0.4576 0.10655,-0.10656 0.47011,0.36869 0.61961,0.60045 0.38734,0.60045 -0.0586,0 -0.28086,-0.22225 -0.49389,-0.49389 z m -1.41111,-1.693334 c -0.35105,-0.44762 -0.34107,-0.457603 0.10655,-0.106555 0.27164,0.213034 0.49389,0.435289 0.49389,0.493889 0,0.23228 -0.23176,0.0828 -0.60044,-0.387334 z m -0.74345,-12.135555 c -0.037,-6.247694 0.0299,-11.359443 0.14868,-11.359443 0.11875,0 1.8015,1.619249 3.73944,3.598333 l 3.52355,3.598333 -3.59504,-3.520257 -3.59504,-3.520256 -0.0772,11.281367 -0.0772,11.281367 z m -112.91154,7.831666 c 0,-0.388055 0.0641,-0.546805 0.14235,-0.352778 0.0783,0.194028 0.0783,0.511528 0,0.705556 -0.0783,0.194028 -0.14235,0.03528 -0.14235,-0.352778 z M 295.98315,67.117921 c 0.0135,-0.328773 0.0804,-0.395648 0.17051,-0.17051 0.0815,0.203729 0.0715,0.447146 -0.0223,0.540926 -0.0938,0.09378 -0.16048,-0.07291 -0.14822,-0.370416 z m -3.69438,-6.255926 -4.65346,-4.727222 4.72722,4.653459 c 4.39179,4.323254 4.85484,4.800985 4.65346,4.800985 -0.0406,0 -2.16782,-2.12725 -4.72722,-4.727222 z M 175.85948,33.980331 c 0,-4.734278 0.0386,-6.671027 0.0858,-4.303889 0.0472,2.367139 0.0472,6.240639 0,8.607777 -0.0472,2.367139 -0.0858,0.430389 -0.0858,-4.303888 z m 1.35702,-5.785555 c 0.003,-0.620889 0.0609,-0.841658 0.12843,-0.490599 0.0675,0.35106 0.0649,0.85906 -0.006,1.128889 -0.0706,0.269829 -0.12587,-0.0174 -0.12274,-0.63829 z"
         id="path2" /><path
         style="fill:#032a2f"
         d="m 239.36355,125.73907 c -0.92486,-0.43891 -4.28506,-2.3024 -7.46712,-4.14108 -3.18206,-1.83868 -8.13505,-4.69731 -11.00667,-6.35252 -2.87161,-1.6552 -8.45961,-4.88249 -12.41777,-7.17176 -10.7245,-6.20269 -21.07073,-12.091309 -23.13605,-13.168029 -1.42732,-0.7441 -2.1391,-1.36296 -3.24556,-2.82185 -3.25724,-4.29474 -4.9985,-6.79804 -5.40445,-7.76962 -0.97558,-2.334876 -1.12994,-12.01232 -0.76469,-47.941939 l 0.18655,-18.35139 6.93932,-3.985756 c 3.81663,-2.192166 15.82932,-9.0938576 26.69488,-15.3370936 10.86555,-6.2432352 20.40432,-11.6714044 21.19725,-12.0625974 l 1.4417,-0.71126 6.40061,3.586628 c 3.52034,1.9726457 15.57157,8.8550404 26.78052,15.2942104 l 20.37991,11.7075826 5.00944,4.991483 5.00945,4.991483 v 1.484607 c 0,1.15971 -0.0968,1.484607 -0.44224,1.484607 -0.38724,0 -6.74222,-3.579105 -22.41776,-12.625608 C 250.6869,3.9038534 242.4223,-0.83682463 241.61214,-1.2231606 c -0.7437,-0.354646 -1.10112,-0.385915 -1.63431,-0.142977 -0.37535,0.171017 -5.23646,2.945044 -10.80248,6.164503 -14.54108,8.4107546 -18.59604,10.7492116 -20.98558,12.1021766 -1.16417,0.659153 -6.05367,3.477767 -10.86556,6.263585 -4.81189,2.785819 -9.41624,5.427128 -10.23188,5.869576 l -1.483,0.80445 0.0719,28.659696 0.0719,28.659692 4.79778,2.76148 c 2.63877,1.51881 5.94077,3.35376 7.33777,4.07766 1.397,0.7239 2.921,1.60228 3.38667,1.95195 0.81033,0.60848 14.87497,8.794129 25.76613,14.995949 l 5.16391,2.94051 3.30276,-1.74873 c 3.11576,-1.64973 32.83855,-18.616319 46.05941,-26.291989 l 6.06778,-3.522786 0.0735,-12.946201 0.0734,-12.9462 4.65378,4.647364 4.65377,4.647364 v 14.165931 14.165928 l -2.32833,1.39089 c -2.21365,1.32238 -5.56772,3.2692 -13.47611,7.821989 -8.31621,4.78757 -13.6618,7.87226 -22.15444,12.78426 -4.96711,2.8729 -10.80911,6.23728 -12.98222,7.47641 -2.17311,1.23912 -4.21041,2.42279 -4.52732,2.63036 -0.50298,0.32944 -0.78995,0.27598 -2.25778,-0.42061 z m 3.0569,-1.48372 c 1.27138,-0.64256 24.79465,-14.09973 28.56375,-16.34072 1.24178,-0.73832 4.73428,-2.7372 7.76111,-4.44195 6.73272,-3.791959 15.61539,-8.953989 16.87682,-9.807699 l 0.93127,-0.63026 -4.16961,-4.69164 c -2.29329,-2.58041 -4.31285,-4.69164 -4.48792,-4.69164 -0.17507,0 -6.33782,3.4947 -13.69499,7.76601 -7.35717,4.27131 -19.50056,11.288059 -26.98531,15.592779 -7.48474,4.30472 -13.61249,7.92616 -13.61722,8.04765 -0.005,0.12149 1.51716,2.02649 3.38196,4.23333 1.8648,2.20685 3.5468,4.3617 3.73778,4.78856 0.19098,0.42686 0.3848,0.77611 0.4307,0.77611 0.0459,0 0.61815,-0.27024 1.27166,-0.60053 z m -5.7761,-2.08881 c -0.0502,-0.23736 -1.32599,-1.98495 -2.83512,-3.88353 l -2.74387,-3.45197 -21.10391,-12.1584 C 198.3543,95.985521 188.12729,90.103791 187.23477,89.602121 l -1.62278,-0.91211 v 2.23475 c 0,1.77648 0.10128,2.32287 0.49389,2.66448 0.27164,0.23634 8.36789,4.97245 17.99166,10.524669 23.04976,13.29803 29.43067,17.01131 30.61607,17.81659 1.13043,0.76793 2.06742,0.88248 1.93074,0.23604 z m 59.32872,-43.862676 0.034,-11.954589 -3.47611,-3.484473 c -1.91186,-1.916461 -3.57326,-3.484473 -3.69201,-3.484473 -0.11875,0 -0.2159,5.052162 -0.2159,11.227026 v 11.227027 l 3.57145,4.298559 c 1.96429,2.36421 3.61038,4.25963 3.65797,4.21204 0.0476,-0.0476 0.10184,-5.46609 0.12056,-12.041117 z m -111.95471,5.163877 c 0.10038,-1.187582 0.18252,-13.671938 0.18252,-27.74301 V 30.140963 l -3.175,-4.557736 c -1.74625,-2.506755 -3.25031,-4.563897 -3.34235,-4.571427 -0.37423,-0.03062 -0.53821,10.720622 -0.53821,35.289123 v 25.899332 l 3.03389,1.694226 c 1.66864,0.93182 3.17401,1.70284 3.34526,1.71337 0.18682,0.0115 0.38437,-0.84451 0.49389,-2.14011 z M 197.97289,21.51812 c 13.59814,-7.827974 39.9381,-23.0776166 40.91999,-23.6908146 0.34295,-0.214177 0.62355,-0.478438 0.62355,-0.587247 0,-0.165607 -6.12618,-7.7686484 -7.19184,-8.9255994 -0.21576,-0.234245 -0.61605,-0.299942 -1.09505,-0.179721 -1.04874,0.263218 -8.71219,4.5681883 -29.10755,16.3512744 -22.2443,12.8512786 -23.56591,13.6394656 -23.56385,14.0530596 9.4e-4,0.188304 1.11794,1.993371 2.48222,4.01126 3.57431,5.286706 4.12193,6.045102 4.37365,6.057066 0.12394,0.0059 5.77544,-3.184284 12.55888,-7.089278 z m 96.74621,5.759434 c -0.22528,-0.426862 -2.45019,-2.808111 -4.94423,-5.291667 l -4.53463,-4.515555 -8.96246,-5.172387 C 261.65635,3.8596774 238.0178,-9.6533076 236.71792,-10.316457 c -0.66401,-0.338755 -1.2469,-0.575308 -1.29531,-0.525674 -0.0691,0.07084 3.67139,4.8834194 5.92381,7.6217054 0.49454,0.601215 8.37826,5.279752 28.93223,17.1696096 8.92527,5.163009 17.94227,10.433871 20.03777,11.713028 2.0955,1.279156 4.03551,2.340524 4.31114,2.358596 0.45855,0.03007 0.46633,-0.03309 0.0915,-0.743254 z"
         id="path1" /></g></g></svg>
